<?xml version="1.0" encoding="utf-8"?>
<!DOCTYPE svg>
<svg xmlns="http://www.w3.org/2000/svg" xmlns:xlink="http://www.w3.org/1999/xlink" width="272" height="89.846" viewBox="0 0 272 89.846">
  <defs>
    <clipPath id="clip-path">
      <path id="Path_103" data-name="Path 103" d="M0-51.046H272v-89.846H0Z" transform="translate(0 140.892)" fill="#faf7f3"/>
    </clipPath>
  </defs>
  <g id="Group_344" data-name="Group 344" clip-path="url(#clip-path)">
    <g id="Group_342" data-name="Group 342" transform="translate(0 0)">
      <path id="Path_101" data-name="Path 101" d="M0-30.988H7.087V-56.024h24.42v-6.162H7.087V-79.134h27.5V-85.3H0ZM97.061-60.03C95.52-75.2,81.654-86.606,66.171-85.451,50.687-84.218,39.209-70.969,40.749-55.716,42.367-40.463,56.156-29.14,71.794-30.3,87.278-31.528,98.678-44.7,97.061-60.03m-5.084,0C90.282-45.7,77.032-33.53,64.938-32.606c-10.322.847-20.337-9.706-18.719-23.957S60.162-82.6,71.948-83.525c10.322-.924,21.569,9.244,20.028,23.5M128.72-29.062c12.941,0,22.185-9.552,22.185-22.8V-85.3H143.9v33.433c0,9.706-6.316,16.639-15.175,16.639s-15.252-6.933-15.252-16.639V-85.3h-7.087v33.433c0,13.249,9.4,22.8,22.34,22.8m36.435-1.926h7.01V-76.052h.77l25.729,45.064H208.68V-85.3h-7.01v45.064h-.693L175.247-85.3H165.156Zm58.159,0h17.41c18.8,0,31.275-10.785,31.275-27.193S259.52-85.3,240.725-85.3h-17.41Zm7.01-6.163V-79.134h10.4c14.482,0,24.342,8.011,24.342,20.953,0,13.019-9.784,21.03-24.342,21.03Z" transform="translate(0 85.531)" fill="#faf7f3"/>
    </g>
    <g id="Group_343" data-name="Group 343" transform="translate(22.482 78.291)">
      <path id="Path_102" data-name="Path 102" d="M0-6.348H4.683c2.158,0,3.719-1.286,3.719-3.03A2.576,2.576,0,0,0,6.52-11.857v-.153A2.343,2.343,0,0,0,8.1-14.245c0-1.684-1.423-2.893-3.413-2.893H0ZM1.393-12.5v-3.413H4.515c1.286,0,2.2.719,2.2,1.714s-.918,1.7-2.2,1.7Zm0,4.928v-3.7H4.484c1.485,0,2.541.765,2.541,1.821,0,1.087-1.056,1.882-2.541,1.882ZM14.616-6.348h1.332l.918-2.418H22.36l.918,2.418H24.61l-4.025-10.79h-1.9Zm2.663-3.566,2.28-6H19.7l2.265,6ZM31.5-6.348H32.89v-4.224h1.99l3.734,4.224h1.76l-3.918-4.3h.184a3.29,3.29,0,0,0,3.444-3.214c0-1.99-1.546-3.275-3.887-3.275H31.5ZM32.89-11.8v-4.117H36.2c1.546,0,2.495.8,2.495,2.051,0,1.27-.949,2.066-2.495,2.066Zm25.5,3.321H59.7v-2.862h2.939v-1.148H59.7v-2.724H58.387v2.724H55.449v1.148h2.939ZM78.651-6.348h1.393v-4.224h1.99l3.734,4.224h1.76l-3.918-4.3h.184a3.29,3.29,0,0,0,3.444-3.214c0-1.99-1.546-3.275-3.887-3.275h-4.7ZM80.044-11.8v-4.117h3.306c1.546,0,2.495.8,2.495,2.051,0,1.27-.949,2.066-2.495,2.066ZM94.476-6.348h7.561V-7.572H95.884v-3.75h5.387v-1.224H95.884v-3.367h6v-1.224H94.476Zm18.748.383c2.648,0,4.194-1.27,4.194-3.291,0-2.449-2.219-2.877-4.178-3.2-1.592-.245-3.03-.505-3.03-1.928,0-1.163.949-1.913,2.694-1.913,1.852,0,2.923.9,2.923,2.433h1.347c-.015-2.28-1.622-3.658-4.27-3.658-2.6,0-4.086,1.27-4.086,3.214,0,2.342,2.143,2.847,4.086,3.153,1.622.26,3.122.505,3.122,1.99,0,1.209-1.025,1.974-2.785,1.974-2.02,0-3.2-.995-3.214-2.663h-1.377c0,2.4,1.745,3.887,4.576,3.887m13.468-.383h1.393v-9.565h3.581v-1.224h-8.54v1.224h3.566Zm9.8,0h1.332l.918-2.418h5.494l.918,2.418h1.332l-4.025-10.79h-1.9Zm2.663-3.566,2.28-6h.138l2.265,6Zm18.121,3.949a4.31,4.31,0,0,0,4.408-4.53v-6.642h-1.393V-10.5a3.051,3.051,0,0,1-3.015,3.306,3.063,3.063,0,0,1-3.03-3.306v-6.642h-1.408V-10.5a4.334,4.334,0,0,0,4.438,4.53m12.213-.383h1.393v-4.224h1.99L176.6-6.348h1.76l-3.918-4.3h.184a3.29,3.29,0,0,0,3.444-3.214c0-1.99-1.546-3.275-3.887-3.275h-4.7Zm1.393-5.448v-4.117h3.306c1.546,0,2.495.8,2.495,2.051,0,1.27-.949,2.066-2.495,2.066Zm13.438,5.448h1.332l.918-2.418h5.494l.918,2.418h1.331l-4.025-10.79h-1.9Zm2.663-3.566,2.28-6h.138l2.265,6ZM201.2-6.348h1.393V-15.3h.153l5.112,8.953h1.99v-10.79H208.45v8.953h-.138L203.2-17.137h-2Zm18.825,0h1.393v-9.565h3.581v-1.224h-8.54v1.224h3.566Z" transform="translate(0 17.52)" fill="#faf7f3"/>
    </g>
  </g>
</svg>
