<?xml version="1.0" encoding="utf-8"?>
<!DOCTYPE svg>
<svg xmlns="http://www.w3.org/2000/svg" xmlns:xlink="http://www.w3.org/1999/xlink" width="255.999" height="117.034" viewBox="0 0 255.999 117.034">
  <defs>
    <clipPath id="clip-path">
      <path id="Path_82" data-name="Path 82" d="M0-33.147H256V-150.181H0Z" transform="translate(0 150.181)"/>
    </clipPath>
  </defs>
  <g id="Group_165" data-name="Group 165" transform="translate(0 0)" clip-path="url(#clip-path)">
    <g id="Group_163" data-name="Group 163" transform="translate(25.178 102.913)">
      <path id="Path_80" data-name="Path 80" d="M-1.933-4A6.349,6.349,0,0,0,4.295-8.563L2.667-8.881A4.8,4.8,0,0,1-1.933-5.5c-2.974,0-5.125-2.338-5.125-5.573,0-3.217,2.132-5.555,5.125-5.555a4.7,4.7,0,0,1,4.582,3.516l1.665-.224A6.4,6.4,0,0,0-1.933-18.12,6.7,6.7,0,0,0-8.76-11.069,6.707,6.707,0,0,0-1.933-4M19.444-4a6.81,6.81,0,0,0,7.126-7.07,6.816,6.816,0,0,0-7.126-7.051,6.816,6.816,0,0,0-7.126,7.051A6.81,6.81,0,0,0,19.444-4m0-1.5a5.306,5.306,0,0,1-5.424-5.573,5.291,5.291,0,0,1,5.424-5.555,5.276,5.276,0,0,1,5.405,5.555A5.291,5.291,0,0,1,19.444-5.5M35.379-4.467H37.1v-6.078h5.929v-1.5H37.1v-4.115h6.677v-1.5h-8.4Zm16.851,0h1.721v-6.078h5.929v-1.5H53.951v-4.115h6.677v-1.5h-8.4Zm16.85,0H78.32v-1.5H70.8v-4.582h6.583v-1.5H70.8v-4.115h7.332v-1.5H69.08Zm18.03,0h9.239v-1.5H88.831v-4.582h6.583v-1.5H88.831v-4.115h7.332v-1.5H87.11Zm28.765,0H117.6V-10.6H124.7v6.135h1.7V-17.652h-1.7V-12.1H117.6v-5.555h-1.721ZM142.34-4a6.81,6.81,0,0,0,7.126-7.07,6.816,6.816,0,0,0-7.126-7.051,6.816,6.816,0,0,0-7.126,7.051A6.81,6.81,0,0,0,142.34-4m0-1.5a5.306,5.306,0,0,1-5.424-5.573,5.291,5.291,0,0,1,5.424-5.555,5.276,5.276,0,0,1,5.405,5.555A5.291,5.291,0,0,1,142.34-5.5M163.586-4a5.266,5.266,0,0,0,5.386-5.536v-8.117h-1.7v8.117a3.729,3.729,0,0,1-3.684,4.04,3.743,3.743,0,0,1-3.7-4.04v-8.117h-1.721v8.117A5.3,5.3,0,0,0,163.586-4m19.806,0c3.236,0,5.125-1.552,5.125-4.021,0-2.992-2.712-3.516-5.106-3.909-1.945-.3-3.7-.617-3.7-2.357,0-1.421,1.16-2.338,3.292-2.338,2.263,0,3.572,1.1,3.572,2.974h1.646c-.019-2.787-1.982-4.47-5.218-4.47-3.179,0-4.994,1.552-4.994,3.928,0,2.862,2.618,3.479,4.994,3.853,1.983.318,3.815.617,3.815,2.431,0,1.478-1.253,2.413-3.4,2.413-2.469,0-3.909-1.216-3.928-3.254H177.8C177.8-5.814,179.932-4,183.392-4m14.045-.468h9.239v-1.5h-7.519v-4.582h6.583v-1.5h-6.583v-4.115h7.332v-1.5h-9.052Z" transform="translate(8.76 18.12)"/>
    </g>
    <g id="Group_164" data-name="Group 164" transform="translate(0 -0.001)">
      <path id="Path_81" data-name="Path 81" d="M-17.281-9.169-21.293-31H-74.378L-78.3-9.169h.373c2.8-8.677,9.143-20.525,18.566-20.525h7.37V33.653h8.211V-29.694h7.557c9.33,0,15.767,11.848,18.566,20.618Zm9.05-3.172-7.65,9.422L-2.074-8.049c13.528-4.572,22.3-3.638,22.018,7.743C19.85,3.239.911,7.344.911,7.344c-26.683,5.5-23.7,27.056-6.157,27.056,15.207,0,24.91-21.924,25.1-22.2l-.186,5.971v7.277c.373,7.37,4.012,8.21,13.341,8.21-3.546-.746-5.6-5.224-5.6-14.181V18.167c-.094-5.411-.094-10.17-.094-13.528,0-13.528-21.365-22.858-35.546-16.98m-2.519,35.079C-16.722,11.263.631,8.837,2.311,8.37,18.358,4.825,19.944,1.653,19.944,1.933l-.094,2.8c-.373,11.849-22.2,33.96-30.6,18.006M70.7,19.846h-.84c-9.236,14.554-25.1,16.047-25,4.665l.281-32.094H59.781l4.665-5.411H45.133V-24.283L31.512-7.583h6.064V21.805c0,15.674,21.832,18.659,33.12-1.959m36.851,0h-.84c-9.236,14.554-25.1,16.047-25,4.665l.281-32.094H96.632l4.664-5.411H81.984V-24.283L68.362-7.583h6.064V21.805c0,15.674,21.832,18.659,33.12-1.959m12.407-61.389-7.65,6.811V25.444c.373,7.37,3.919,8.21,13.249,8.21-3.546-.746-5.411-5.224-5.6-14.181q-.7-30.508,0-61.016M177.7,19.286h-.56c-4.384,8.117-13.061,11.943-18.472,11.943-17.447,0-25.19-17.54-22.764-29.855h27.056c3.173-.093,10.729-.746,10.729-6.717,0-.747-.187-5.878-8.583-7.837a33.992,33.992,0,0,0-15.394-.373C134.694-9.636,129.469,4.358,129.469,4.358c-4.852,12.782,4.384,30.6,21.645,30.6a30.357,30.357,0,0,0,17.166-5.037c7.744-4.572,9.423-10.636,9.423-10.636M139.452-6.09c4.2-5.132,15.113-7.93,22.017-3.546,4.105,2.613,6.438,8.3,0,8.77l-4.851.28L136.186.067a15.036,15.036,0,0,1,3.266-6.157" transform="translate(78.297 41.543)"/>
    </g>
  </g>
</svg>
