<svg xmlns="http://www.w3.org/2000/svg" width="277.35" height="119.831" viewBox="0 0 277.35 119.831">
  <g id="Group_412" data-name="Group 412" transform="translate(-30 -602)">
    <text id="ST_PAUL_S_LONDON" data-name="ST PAUL’S, LONDON" transform="translate(32.243 706.831)" fill="#fff" font-size="14" font-family="ObjectSans-Regular, Object Sans" letter-spacing="0.25em"><tspan x="0" y="10">ST PAUL’S, LONDON</tspan></text>
    <path id="Path_17" data-name="Path 17" d="M341.207,46.642c-7.989,0-13.707-5.906-13.707-14.11S333.218,18.5,341.207,18.5s13.66,5.859,13.66,14.036-5.671,14.11-13.66,14.11m0-31.9c-10.535,0-18.007,7.391-18.007,17.819s7.472,17.859,18.007,17.859,18.007-7.391,18.007-17.859S351.743,14.74,341.207,14.74" transform="translate(-226.143 630.485)" fill="#fff"/>
    <path id="Path_18" data-name="Path 18" d="M246.332,33.449A8.15,8.15,0,0,1,240,36.433h-9.339V16.363h5.516q12.571,0,12.565,9.541a11.387,11.387,0,0,1-2.405,7.546m3.3-14.977a17.9,17.9,0,0,0-10.381-2.9H223.4l2.889.941q.087,12.921,0,32.252c0,.034-.054.443-.155,1.243h7.075c-.625-.5-1.068-.853-1.31-1.068a4.212,4.212,0,0,1-.82-1.142,3.8,3.8,0,0,1-.45-1.868v-9h9.837a16.844,16.844,0,0,0,6.047-1.243,12.639,12.639,0,0,0,5.14-3.823,9.353,9.353,0,0,0,2.164-6.108q0-4.374-4.226-7.283" transform="translate(-193.4 630.213)" fill="#fff"/>
    <path id="Path_19" data-name="Path 19" d="M0,2.51V35.83H21.078V32.047H4.3V2.51Z" transform="translate(32.243 600.673)" fill="#fff"/>
    <path id="Path_20" data-name="Path 20" d="M81.154,32.195a19.706,19.706,0,0,1-6.235,12.047Q69.477,49.523,63.45,49.98a9.675,9.675,0,0,1-6.235-1.686,12.444,12.444,0,0,1-4.5-5.684,15.971,15.971,0,0,1-1.088-8.177,19.667,19.667,0,0,1,5.832-11.92q5.093-5.167,10.905-5.617,5.221-.443,9.34,4.1a13.787,13.787,0,0,1,3.427,11.2m3.279,0a17.47,17.47,0,0,0-6.585-12.141,18.209,18.209,0,0,0-13.337-4.246,17.429,17.429,0,0,0-12.316,6.208A16.569,16.569,0,0,0,48.1,34.983a17.57,17.57,0,0,0,6.625,12.168,18.336,18.336,0,0,0,13.425,4.22,17.409,17.409,0,0,0,12.3-6.182A16.455,16.455,0,0,0,84.48,32.195" transform="translate(5.963 586.428)" fill="#fff"/>
    <path id="Path_21" data-name="Path 21" d="M286.167,32.153h6.558a18.553,18.553,0,0,0,4.1-.443,17.369,17.369,0,0,0,3.749-1.344,7.122,7.122,0,0,0,2.856-2.419A6.3,6.3,0,0,0,304.5,24.3q0-3.675-3.675-6.208a15.306,15.306,0,0,0-8.889-2.533H277.15V49.985h4.522V16.061h9.138a9.488,9.488,0,0,1,6.182,2.016q2.506,2.016,2.513,6.356a9.475,9.475,0,0,1-.672,3.8,4.582,4.582,0,0,1-2.016,2.237,9.775,9.775,0,0,1-2.688.994,17.227,17.227,0,0,1-3.306.269h-5.106v.914a12.567,12.567,0,0,0,1.122,5.442,9.851,9.851,0,0,0,2.829,3.675,26.973,26.973,0,0,0,3.823,2.432,32.834,32.834,0,0,0,4.031,1.814A17.971,17.971,0,0,1,301,47.728a5.8,5.8,0,0,1,2.19,2.258h3.077q-.591-6.652-8.345-8.641a22.735,22.735,0,0,1-8.735-3.36,6.86,6.86,0,0,1-2.977-5.812" transform="translate(-211.035 630.22)" fill="#fff"/>
    <path id="Path_22" data-name="Path 22" d="M113.247,25.179c0-3.595,2.929-5.906,8.318-5.906,5.718,0,9.03,2.788,9.03,7.512h4.159c-.054-7.042-5.012-11.295-13.189-11.295-8.063,0-12.618,3.924-12.618,9.924,0,7.216,6.591,8.789,12.639,9.736,5.012.806,9.642,1.559,9.642,6.148,0,3.729-3.165,6.094-8.6,6.094-6.242,0-9.877-3.071-9.924-8.224H108.45c0,7.391,5.375,12,14.11,12,8.177,0,12.948-3.917,12.948-10.159,0-7.559-6.853-8.883-12.9-9.877-4.918-.753-9.36-1.559-9.36-5.953" transform="translate(-13.875 586.51)" fill="#fff"/>
    <path id="Path_23" data-name="Path 23" d="M136.53,2.51V6.293h11.006V35.83h4.3V6.293H162.9V2.51Z" transform="translate(-12.552 600.673)" fill="#fff"/>
    <path id="Path_24" data-name="Path 24" d="M403.809,33.449a8.15,8.15,0,0,1-6.336,2.983h-9.34V16.363h5.516q12.571,0,12.565,9.541a11.387,11.387,0,0,1-2.405,7.546m3.3-14.977a17.9,17.9,0,0,0-10.381-2.9H380.89l2.883.941q.087,12.921,0,32.252c0,.034-.054.443-.155,1.243h7.1q-.934-.746-1.31-1.068a4.212,4.212,0,0,1-.82-1.142,3.8,3.8,0,0,1-.45-1.868v-9h9.837a16.844,16.844,0,0,0,6.047-1.243,12.639,12.639,0,0,0,5.16-3.823,9.32,9.32,0,0,0,2.164-6.108q0-4.374-4.226-7.283" transform="translate(-245.072 630.213)" fill="#fff"/>
    <path id="Path_25" data-name="Path 25" d="M438.531,49.4V33.009h15.1v-.544h-15.1V16.218a73.667,73.667,0,0,1,8.52.275A12.692,12.692,0,0,1,452,18.153l6.753,5.375-3.178-7.949h-21.5V50h19.324l6.255-12.323A48.23,48.23,0,0,1,455.3,42.47a34.76,34.76,0,0,1-4.643,3.7,18.632,18.632,0,0,1-5.61,2.56,21.366,21.366,0,0,1-6.511.672" transform="translate(-262.519 630.209)" fill="#fff"/>
    <path id="Path_26" data-name="Path 26" d="M488.983,32.153h6.558a18.45,18.45,0,0,0,4.092-.443,17.417,17.417,0,0,0,3.756-1.344,7.169,7.169,0,0,0,2.856-2.419,6.3,6.3,0,0,0,1.068-3.648q0-3.675-3.675-6.208a15.312,15.312,0,0,0-8.9-2.533H480V49.985h4.515V16.061h9.145a9.487,9.487,0,0,1,6.182,2.016q2.513,2.016,2.513,6.356a9.472,9.472,0,0,1-.672,3.8,4.616,4.616,0,0,1-2.016,2.237,9.777,9.777,0,0,1-2.688.994,17.274,17.274,0,0,1-3.306.269h-5.14v.914a12.566,12.566,0,0,0,1.122,5.442,9.851,9.851,0,0,0,2.829,3.675,26.972,26.972,0,0,0,3.823,2.432,32.818,32.818,0,0,0,4.031,1.814,17.976,17.976,0,0,1,3.474,1.713A5.733,5.733,0,0,1,506,49.985h3.084q-.6-6.652-8.345-8.641A22.735,22.735,0,0,1,492,37.985a6.86,6.86,0,0,1-2.976-5.812" transform="translate(-277.589 630.22)" fill="#fff"/>
    <path id="Path_27" data-name="Path 27" d="M558.615,27.241l.2-.047L556.68,15.57H528.413L526.33,27.194h.195a29.378,29.378,0,0,1,2.09-5.019,15.611,15.611,0,0,1,3.359-4.246,6.538,6.538,0,0,1,4.448-1.908h3.924V47.862c-.074,1.189-.363,1.881-.995,2.137h6.356a2.856,2.856,0,0,1-.994-2.19V16.02h4.031a6.457,6.457,0,0,1,4.421,1.908,16.212,16.212,0,0,1,3.359,4.273,29.044,29.044,0,0,1,2.11,5.039" transform="translate(-292.789 630.213)" fill="#fff"/>
    <path id="Path_28" data-name="Path 28" d="M600.1.83,584.4,18.709,567.012.83H561.2l18.726,18.928.054,14.359-.2,1.142H585l-.155-1.142V19.307L601.044.83Z" transform="translate(-293.694 644.953)" fill="#fff"/>
  </g>
</svg>
