<svg  style="fill: currentColor;timing-function: cubic-bezier(0.4, 0, 0.2, 1);transition-duration: 150ms" id="Lost_Property_Long_LOGO_RGB_AW" data-name="Lost Property Long_LOGO RGB AW" xmlns="http://www.w3.org/2000/svg" width="347" height="29.254" viewBox="0 0 347 29.254">
  <path id="Path_17" data-name="Path 17" d="M338.187,40.4a10.97,10.97,0,0,1-11.408-11.347c0-6.6,4.759-11.288,11.408-11.288s11.369,4.712,11.369,11.288A10.95,10.95,0,0,1,338.187,40.4m0-25.656c-8.769,0-14.987,5.944-14.987,14.33s6.219,14.363,14.987,14.363,14.987-5.944,14.987-14.363-6.219-14.33-14.987-14.33" transform="translate(-151.227 -14.74)"/>
  <path id="Path_18" data-name="Path 18" d="M242.486,29.949a6.879,6.879,0,0,1-5.273,2.4H229.44V16.208h4.591q10.463,0,10.458,7.673a8.955,8.955,0,0,1-2,6.068M245.232,17.9a15.283,15.283,0,0,0-8.64-2.334H223.4l2.4.756q.073,10.391,0,25.937c0,.027-.045.357-.129,1h5.889c-.52-.4-.889-.686-1.09-.859a3.393,3.393,0,0,1-.682-.919,2.976,2.976,0,0,1-.375-1.5V32.748H237.6a14.443,14.443,0,0,0,5.033-1,10.5,10.5,0,0,0,4.278-3.075,7.367,7.367,0,0,0,1.8-4.912q0-3.518-3.518-5.857" transform="translate(-107.237 -15.122)" />
  <path id="Path_19" data-name="Path 19" d="M0,2.51v26.8H17.543V26.264H3.579V2.51Z" transform="translate(0 -1.154)" />
  <path id="Path_20" data-name="Path 20" d="M75.592,28.973a15.673,15.673,0,0,1-5.19,9.688,15.586,15.586,0,0,1-9.546,4.615,8.264,8.264,0,0,1-5.19-1.356,10.072,10.072,0,0,1-3.741-4.571,12.448,12.448,0,0,1-.906-6.576,15.617,15.617,0,0,1,4.854-9.586,14.447,14.447,0,0,1,9.076-4.517,9.294,9.294,0,0,1,7.773,3.3,10.843,10.843,0,0,1,2.852,9.008m2.729,0a13.926,13.926,0,0,0-5.48-9.764,15.508,15.508,0,0,0-11.1-3.415,14.686,14.686,0,0,0-10.251,4.993,13.031,13.031,0,0,0-3.389,10.429A14.008,14.008,0,0,0,53.6,41a15.62,15.62,0,0,0,11.173,3.393,14.671,14.671,0,0,0,10.234-4.971,12.94,12.94,0,0,0,3.355-10.45" transform="translate(-29.92 -15.199)" />
  <path id="Path_21" data-name="Path 21" d="M284.655,28.9h5.458a15.957,15.957,0,0,0,3.411-.357,14.79,14.79,0,0,0,3.121-1.081,5.88,5.88,0,0,0,2.377-1.945,4.944,4.944,0,0,0,.889-2.934q0-2.956-3.059-4.993a13.069,13.069,0,0,0-7.4-2.037h-12.3V43.243h3.764V15.961h7.605a8.081,8.081,0,0,1,5.145,1.621q2.086,1.621,2.092,5.112a7.392,7.392,0,0,1-.559,3.058,3.733,3.733,0,0,1-1.678,1.8,8.316,8.316,0,0,1-2.237.8,14.826,14.826,0,0,1-2.751.216h-4.25V29.3a9.816,9.816,0,0,0,.934,4.377,7.963,7.963,0,0,0,2.354,2.956,22.576,22.576,0,0,0,3.182,1.956,27.816,27.816,0,0,0,3.355,1.459A15.178,15.178,0,0,1,297,41.428a4.742,4.742,0,0,1,1.823,1.816h2.561q-.492-5.349-6.945-6.949a19.31,19.31,0,0,1-7.27-2.7,5.462,5.462,0,0,1-2.477-4.674" transform="translate(-130.929 -15.112)" />
  <path id="Path_22" data-name="Path 22" d="M112.443,23.282c0-2.891,2.438-4.75,6.923-4.75,4.759,0,7.516,2.242,7.516,6.041h3.462c-.045-5.663-4.172-9.083-10.978-9.083-6.711,0-10.5,3.156-10.5,7.981,0,5.8,5.486,7.068,10.519,7.83,4.172.648,8.025,1.254,8.025,4.944,0,3-2.634,4.9-7.158,4.9-5.2,0-8.221-2.469-8.26-6.614h-3.54c0,5.944,4.474,9.651,11.744,9.651,6.806,0,10.776-3.15,10.776-8.17,0-6.079-5.7-7.143-10.737-7.943-4.094-.605-7.79-1.254-7.79-4.788" transform="translate(-56.571 -15.085)" />
  <path id="Path_23" data-name="Path 23" d="M136.53,2.51V5.552h9.16V29.306h3.579V5.552h9.2V2.51Z" transform="translate(-60.179 -1.154)" />
  <path id="Path_24" data-name="Path 24" d="M399.965,29.949a6.879,6.879,0,0,1-5.274,2.4h-7.773V16.208h4.591q10.463,0,10.458,7.673a8.955,8.955,0,0,1-2,6.068M402.711,17.9a15.283,15.283,0,0,0-8.64-2.334H380.89l2.4.756q.073,10.391,0,25.937c0,.027-.045.357-.129,1h5.911q-.777-.6-1.091-.859a3.391,3.391,0,0,1-.682-.919,2.976,2.976,0,0,1-.375-1.5V32.748h8.187a14.444,14.444,0,0,0,5.033-1,10.5,10.5,0,0,0,4.295-3.075,7.34,7.34,0,0,0,1.8-4.912q0-3.518-3.518-5.857" transform="translate(-176.655 -15.122)" />
  <path id="Path_25" data-name="Path 25" d="M437.783,42.781V29.6h12.571v-.438H437.783V16.093a63.442,63.442,0,0,1,7.091.222,10.816,10.816,0,0,1,4.116,1.335l5.62,4.323-2.645-6.392h-17.9V43.262h16.083l5.206-9.91a39.279,39.279,0,0,1-3.618,3.853,28.794,28.794,0,0,1-3.864,2.977,15.769,15.769,0,0,1-4.67,2.059,18.377,18.377,0,0,1-5.419.54" transform="translate(-200.095 -15.126)" />
  <path id="Path_26" data-name="Path 26" d="M487.477,28.9h5.458a15.872,15.872,0,0,0,3.406-.357,14.831,14.831,0,0,0,3.126-1.081,5.919,5.919,0,0,0,2.377-1.945,4.946,4.946,0,0,0,.889-2.934q0-2.956-3.059-4.993a13.074,13.074,0,0,0-7.4-2.037H480V43.243h3.758V15.961h7.611a8.081,8.081,0,0,1,5.145,1.621q2.091,1.621,2.091,5.112a7.386,7.386,0,0,1-.559,3.058,3.759,3.759,0,0,1-1.678,1.8,8.318,8.318,0,0,1-2.237.8,14.867,14.867,0,0,1-2.751.216H487.1V29.3a9.815,9.815,0,0,0,.934,4.377,7.963,7.963,0,0,0,2.354,2.956,22.576,22.576,0,0,0,3.182,1.956,27.806,27.806,0,0,0,3.355,1.459,15.178,15.178,0,0,1,2.891,1.378,4.687,4.687,0,0,1,1.818,1.816H504.2q-.5-5.349-6.945-6.949a19.312,19.312,0,0,1-7.27-2.7,5.462,5.462,0,0,1-2.477-4.674" transform="translate(-220.34 -15.112)" />
  <path id="Path_27" data-name="Path 27" d="M553.2,24.956l.168-.038L551.59,15.57H528.063l-1.734,9.348h.162a23.193,23.193,0,0,1,1.739-4.036,12.633,12.633,0,0,1,2.8-3.415,5.535,5.535,0,0,1,3.7-1.535H538V41.539c-.061.956-.3,1.513-.828,1.718h5.291a2.265,2.265,0,0,1-.828-1.762V15.932h3.355a5.466,5.466,0,0,1,3.68,1.535,13.113,13.113,0,0,1,2.8,3.437,22.926,22.926,0,0,1,1.756,4.053" transform="translate(-240.761 -15.122)" />
  <path id="Path_28" data-name="Path 28" d="M593.573.83,580.51,15.209,566.037.83H561.2l15.586,15.222L576.83,27.6l-.168.919h4.345l-.129-.919V15.69L594.362.83Z" transform="translate(-247.362 -0.382)" />
</svg>
