<svg  width="347" style="fill: currentColor;timing-function: cubic-bezier(0.4, 0, 0.2, 1);transition-duration: 150ms" xmlns="http://www.w3.org/2000/svg" viewBox="0 0 2199.66 344.74"><g id="a"/><g id="b"><g id="c"><g><g><path d="M1186.28,0c-55.54,0-94.9,39.1-94.9,93.89s39.36,94.15,94.9,94.15,94.9-38.86,94.9-94.15S1241.82,0,1186.28,0m0,168.12c-42.09,0-72.23-31.13-72.23-74.22s30.13-73.97,72.23-73.97,71.98,30.88,71.98,73.97-29.89,74.22-71.98,74.22"/><path d="M876.24,18.25c-14.84-10.21-33.07-15.32-54.72-15.32h-83.52l15.19,4.98c.34,45.38,.34,102.02,0,169.91,0,.18-.27,2.36-.79,6.55h37.44c-3.32-2.62-5.63-4.5-6.93-5.63-1.31-1.14-2.75-3.14-4.32-6.02-1.58-2.88-2.35-6.15-2.35-9.82v-47.39h51.83c10.82-.17,21.47-2.36,31.94-6.54,10.47-4.19,19.51-10.9,27.1-20.16,7.59-9.25,11.38-19.99,11.38-32.2,0-15.36-7.42-28.15-22.25-38.36m-17.41,78.93c-8.47,10.13-19.6,15.36-33.38,15.71h-49.22V7.12h29.06c44.15,0,66.24,16.76,66.24,50.28,0,16.4-4.24,29.67-12.69,39.79"/><polygon points="2.41 8.88 2.41 184.49 113.5 184.49 113.5 164.55 25.07 164.55 25.07 8.88 2.41 8.88 2.41 8.88"/><path d="M308.91,90.28c-2.62-25.83-14.18-47.16-34.69-64.02C253.71,9.43,230.28,1.97,203.93,3.88c-26.36,2.1-48,13-64.93,32.72-16.94,19.73-24.09,42.5-21.47,68.34,2.8,26.01,14.44,47.39,34.95,64.14,20.51,16.76,44.03,24.17,70.56,22.26,26.36-2.1,47.95-12.96,64.8-32.6,16.84-19.64,23.86-42.45,21.07-68.46m-17.28,0c-2.8,23.73-13.75,44.9-32.86,63.48-19.12,18.59-39.24,28.67-60.35,30.25-11.69,.87-22.65-2.1-32.86-8.91-10.21-6.8-18.11-16.79-23.69-29.97-5.59-13.18-7.51-27.53-5.75-43.08,2.61-23.72,12.86-44.67,30.76-62.83,17.89-18.15,37.05-28.01,57.46-29.58,18.33-1.58,34.73,5.62,49.22,21.59,14.49,15.97,20.51,35.65,18.07,59.04"/><path d="M975.83,90.38h34.56c7.51,0,14.7-.79,21.6-2.36,6.89-1.57,13.48-3.88,19.76-6.94,6.29-3.05,11.3-7.33,15.05-12.83,3.76-5.49,5.63-11.91,5.63-19.24,0-12.91-6.46-23.83-19.37-32.73-12.92-8.9-28.54-13.35-46.86-13.35h-77.76V184.37h23.83V5.56h48.18c12.91,0,23.77,3.57,32.59,10.73,8.81,7.16,13.22,18.33,13.22,33.51,0,8.03-1.18,14.7-3.53,20.03-2.35,5.32-5.85,9.26-10.47,11.79-4.63,2.53-9.34,4.27-14.14,5.23-4.8,.96-10.59,1.44-17.4,1.44h-27.23v4.71c0,10.82,1.97,20.38,5.89,28.67,3.93,8.28,8.91,14.74,14.93,19.37,6.02,4.63,12.74,8.9,20.15,12.83,7.43,3.92,14.45,7.11,21.08,9.55,6.63,2.45,12.74,5.46,18.33,9.03,5.58,3.58,9.42,7.55,11.52,11.91h16.23c-2.1-23.39-16.76-38.57-43.99-45.55-20.24-4.19-35.6-10.12-46.08-17.8-10.47-7.68-15.71-17.89-15.71-30.64"/><path d="M356.22,53.72c0-18.93,15.44-31.14,43.84-31.14,30.13,0,47.57,14.7,47.57,39.61h21.92c-.25-37.11-26.41-59.52-69.49-59.52s-66.51,20.66-66.51,52.3c0,38.1,34.88,46.32,66.51,51.3,26.41,4.24,50.81,8.22,50.81,32.39,0,19.67-16.68,32.12-45.33,32.12-32.88,0-52.06-16.19-52.3-43.33h-22.42c0,39.1,28.4,63.26,74.47,63.26,43.08,0,68.24-20.66,68.24-53.54,0-39.85-36.12-46.82-68-52.06-25.91-3.98-49.31-8.22-49.31-31.38"/><polygon points="485.86 8.88 485.86 28.82 543.9 28.82 543.9 184.49 566.56 184.49 566.56 28.82 624.84 28.82 624.84 8.88 485.86 8.88 485.86 8.88"/><path d="M1433.89,18.25c-14.84-10.21-33.08-15.32-54.72-15.32h-83.51l15.18,4.98c.35,45.38,.35,102.02,0,169.91,0,.18-.27,2.36-.79,6.55h37.44c-3.32-2.62-5.62-4.5-6.93-5.63-1.31-1.14-2.76-3.14-4.32-6.02-1.58-2.88-2.35-6.15-2.35-9.82v-47.39h51.83c10.82-.17,21.47-2.36,31.95-6.54,10.47-4.19,19.5-10.9,27.09-20.16,7.6-9.25,11.38-19.99,11.38-32.2,0-15.36-7.41-28.15-22.25-38.36m-17.41,78.93c-8.47,10.13-19.6,15.36-33.38,15.71h-49.22V7.12h29.06c44.15,0,66.24,16.76,66.24,50.28,0,16.4-4.24,29.67-12.7,39.79"/><path d="M1507.5,181.23V94.83h79.59v-2.88h-79.59V6.34c20.59-.17,35.56,.31,44.9,1.44,9.34,1.14,18.02,4.05,26.05,8.76l35.61,28.28-16.76-41.89h-113.36V184.37h101.84l32.99-64.93c-8.03,9.94-15.67,18.37-22.91,25.26-7.24,6.9-15.4,13.4-24.47,19.51-9.08,6.11-18.94,10.61-29.58,13.48-10.65,2.88-22.09,4.05-34.3,3.53"/><path d="M1693.96,90.38h34.56c7.5,0,14.7-.79,21.59-2.36,6.9-1.57,13.48-3.88,19.77-6.94,6.29-3.05,11.29-7.33,15.05-12.83,3.76-5.49,5.63-11.91,5.63-19.24,0-12.91-6.46-23.83-19.37-32.73-12.93-8.9-28.54-13.35-46.87-13.35h-77.76V184.37h23.83V5.56h48.17c12.92,0,23.79,3.57,32.6,10.73,8.8,7.16,13.22,18.33,13.22,33.51,0,8.03-1.18,14.7-3.53,20.03-2.35,5.32-5.86,9.26-10.47,11.79-4.63,2.53-9.34,4.27-14.14,5.23-4.8,.96-10.6,1.44-17.41,1.44h-27.22v4.71c0,10.82,1.97,20.38,5.89,28.67,3.93,8.28,8.9,14.74,14.93,19.37,6.02,4.63,12.74,8.9,20.15,12.83,7.42,3.92,14.45,7.11,21.08,9.55,6.63,2.45,12.74,5.46,18.33,9.03,5.58,3.58,9.42,7.55,11.52,11.91h16.23c-2.1-23.39-16.76-38.57-43.99-45.55-20.24-4.19-35.6-10.12-46.08-17.8-10.47-7.68-15.7-17.89-15.7-30.64"/><path d="M1980.85,64.46l1.04-.27-11.25-61.26h-148.97l-11,61.26h1.06c2.96-9.42,6.63-18.23,10.98-26.44,4.36-8.2,10.25-15.67,17.67-22.38,7.43-6.72,15.23-10.08,23.44-10.08h20.68V173.11c-.36,6.29-1.91,9.92-5.24,11.26h33.51c-3.18-2.51-5.07-6.63-5.23-11.52V5.3h21.2c8.2,0,15.96,3.36,23.3,10.08,7.33,6.72,13.23,14.22,17.67,22.52,4.45,8.29,8.16,17.15,11.13,26.57"/><polygon points="2194.68 2.94 2111.95 97.18 2020.32 2.94 1989.68 2.94 2088.38 102.69 2088.66 178.35 2087.6 184.37 2115.09 184.37 2114.3 178.35 2114.3 100.33 2199.66 2.94 2194.68 2.94 2194.68 2.94"/></g><g><path d="M16.79,316.57c9.42,0,14.93-4.52,14.93-11.71,0-8.72-7.9-10.24-14.87-11.39-5.67-.87-10.79-1.8-10.79-6.86,0-4.14,3.38-6.81,9.59-6.81,6.59,0,10.41,3.21,10.41,8.66h4.79c-.05-8.12-5.77-13.02-15.2-13.02s-14.55,4.52-14.55,11.44c0,8.34,7.63,10.13,14.55,11.22,5.77,.93,11.11,1.8,11.11,7.08,0,4.3-3.65,7.03-9.92,7.03-7.19,0-11.39-3.54-11.44-9.48H.5c0,8.55,6.21,13.84,16.29,13.84m46.9-1.36h4.96v-34.05h12.75v-4.36h-30.4v4.36h12.69v34.05h0Zm69.84,0h4.85v-14.87h10.46c8.17,0,13.78-4.52,13.78-11.77,.05-7.35-5.39-11.77-13.78-11.77h-15.31v38.41h0Zm4.85-19.29v-14.76h10.46c5.56,0,8.88,2.89,8.88,7.41s-3.32,7.35-8.88,7.35h-10.46Zm40.23,19.29h4.74l3.27-8.61h19.56l3.27,8.61h4.74l-14.33-38.41h-6.76l-14.49,38.41h0Zm9.48-12.69l8.12-21.36h.49l8.06,21.36h-16.67Zm62.02,14.06c9.15,0,15.69-6.76,15.69-16.13v-23.64h-4.96v23.64c0,6.86-4.47,11.77-10.73,11.77s-10.79-4.9-10.79-11.77v-23.64h-5.01v23.64c0,9.37,6.65,16.13,15.8,16.13m41.33-1.36h24.3v-4.36h-19.34v-34.05h-4.96v38.41h0Zm38.94-27.4l3.32-7.52c.38-.87,.6-1.58,.6-2.34,0-1.69-1.25-2.94-3-2.94s-3,1.25-3,2.94c0,1.53,.93,2.67,2.34,3l-2.51,6.32,2.23,.54h0Zm42.06,28.77c9.42,0,14.93-4.52,14.93-11.71,0-8.72-7.9-10.24-14.87-11.39-5.67-.87-10.79-1.8-10.79-6.86,0-4.14,3.38-6.81,9.59-6.81,6.59,0,10.41,3.21,10.41,8.66h4.79c-.05-8.12-5.77-13.02-15.2-13.02s-14.55,4.52-14.55,11.44c0,8.34,7.63,10.13,14.55,11.22,5.77,.93,11.11,1.8,11.11,7.08,0,4.3-3.65,7.03-9.92,7.03-7.19,0-11.39-3.54-11.44-9.48h-4.9c0,8.55,6.21,13.84,16.29,13.84m39.4,6.16l3.27-7.52c.44-.87,.6-1.53,.6-2.29,0-1.74-1.2-3-3-3s-3,1.25-3,3c0,1.47,.93,2.62,2.34,2.94l-2.51,6.32,2.29,.54h0Zm58.13-7.52h24.3v-4.36h-19.34v-34.05h-4.96v38.41h0Zm63.3,1.36c12.15,0,20.76-8.5,20.76-20.59s-8.61-20.54-20.76-20.54-20.76,8.55-20.76,20.54,8.61,20.59,20.76,20.59m0-4.36c-9.21,0-15.8-6.81-15.8-16.23s6.59-16.18,15.8-16.18,15.74,6.76,15.74,16.18-6.54,16.23-15.74,16.23m44.38,3h4.96v-31.87h.54l18.2,31.87h7.08v-38.41h-4.96v31.87h-.49l-18.2-31.87h-7.14v38.41h0Zm56.66,0h12.31c13.29,0,22.12-7.63,22.12-19.23s-8.83-19.18-22.12-19.18h-12.31v38.41h0Zm4.96-4.36v-29.69h7.35c10.24,0,17.22,5.67,17.22,14.82s-6.92,14.87-17.22,14.87h-7.35Zm71.64,5.72c12.15,0,20.76-8.5,20.76-20.59s-8.61-20.54-20.76-20.54-20.76,8.55-20.76,20.54,8.61,20.59,20.76,20.59m0-4.36c-9.21,0-15.8-6.81-15.8-16.23s6.59-16.18,15.8-16.18,15.74,6.76,15.74,16.18-6.54,16.23-15.74,16.23m44.38,3h4.96v-31.87h.54l18.2,31.87h7.08v-38.41h-4.96v31.87h-.49l-18.2-31.87h-7.14v38.41h0Z" style="stroke: currentColor stroke-miterlimit:10;"/><rect x="840.75" y="250.43" width="4" height="93.82" style="stroke: currentColor stroke-miterlimit:10;"/><g><g><path d="M902.23,295.89c0-11.76,8.22-20.25,19.6-20.25,8.54,0,16.06,5.8,17.94,13.75l-4.78,.64c-1.4-5.85-6.93-10.1-13.16-10.1-8.59,0-14.72,6.71-14.72,15.95s6.18,16.01,14.72,16.01c6.12,0,11.66-4.14,13.21-9.72l4.67,.91c-1.88,7.57-9.4,13.11-17.89,13.11-11.39,0-19.66-8.54-19.6-20.3Z" style="stroke: currentColor stroke-miterlimit:10;"/><path d="M963.62,300.29v-23.31h4.94v23.31c0,6.77,4.46,11.6,10.63,11.6s10.58-4.83,10.58-11.6v-23.31h4.89v23.31c0,9.24-6.45,15.9-15.47,15.9s-15.58-6.66-15.58-15.9Z" style="stroke: currentColor stroke-miterlimit:10;"/><path d="M1020.87,276.98h16.49c8.22,0,13.64,4.51,13.64,11.49,0,6.45-5.05,10.96-12.08,11.28h-.64l13.75,15.09h-6.18l-13.11-14.82h-6.98v14.82h-4.89v-37.87Zm16.49,18.75c5.42,0,8.75-2.79,8.75-7.25s-3.33-7.2-8.75-7.2h-11.6v14.45h11.6Z" style="stroke: currentColor stroke-miterlimit:10;"/><path d="M1075.22,276.98h4.89v37.87h-4.89v-37.87Z" style="stroke: currentColor stroke-miterlimit:10;"/><path d="M1104.22,295.89c0-11.82,8.49-20.25,20.46-20.25s20.46,8.43,20.46,20.25-8.49,20.3-20.46,20.3-20.46-8.38-20.46-20.3Zm35.99,0c0-9.29-6.45-15.95-15.52-15.95s-15.58,6.66-15.58,15.95,6.5,16.01,15.58,16.01,15.52-6.71,15.52-16.01Z" style="stroke: currentColor stroke-miterlimit:10;"/><path d="M1196.65,295.89c0-11.76,8.22-20.25,19.6-20.25,8.54,0,16.06,5.8,17.94,13.75l-4.78,.64c-1.4-5.85-6.93-10.1-13.16-10.1-8.59,0-14.72,6.71-14.72,15.95s6.18,16.01,14.72,16.01c6.12,0,11.66-4.14,13.21-9.72l4.67,.91c-1.88,7.57-9.4,13.11-17.89,13.11-11.39,0-19.66-8.54-19.6-20.3Z" style="stroke: currentColor stroke-miterlimit:10;"/><path d="M1256,295.89c0-11.82,8.49-20.25,20.46-20.25s20.46,8.43,20.46,20.25-8.49,20.3-20.46,20.3-20.46-8.38-20.46-20.3Zm35.99,0c0-9.29-6.45-15.95-15.52-15.95s-15.58,6.66-15.58,15.95,6.5,16.01,15.58,16.01,15.52-6.71,15.52-16.01Z" style="stroke: currentColor stroke-miterlimit:10;"/><path d="M1321.04,276.98h4.89v33.57h19.07v4.3h-23.96v-37.87Z" style="stroke: currentColor stroke-miterlimit:10;"/><path d="M1368.04,276.98h4.89v33.57h19.07v4.3h-23.96v-37.87Z" style="stroke: currentColor stroke-miterlimit:10;"/><path d="M1415.03,276.98h26v4.3h-21.05v11.82h18.91v4.3h-18.91v13.16h21.59v4.3h-26.53v-37.87Z" style="stroke: currentColor stroke-miterlimit:10;"/><path d="M1463.31,295.89c0-11.76,8.22-20.25,19.6-20.25,8.54,0,16.06,5.8,17.94,13.75l-4.78,.64c-1.4-5.85-6.93-10.1-13.16-10.1-8.59,0-14.72,6.71-14.72,15.95s6.18,16.01,14.72,16.01c6.12,0,11.66-4.14,13.21-9.72l4.67,.91c-1.88,7.57-9.4,13.11-17.89,13.11-11.39,0-19.66-8.54-19.6-20.3Z" style="stroke: currentColor stroke-miterlimit:10;"/><path d="M1532.87,281.28h-12.51v-4.3h29.97v4.3h-12.57v33.57h-4.89v-33.57Z" style="stroke: currentColor stroke-miterlimit:10;"/><path d="M1572.34,276.98h4.89v37.87h-4.89v-37.87Z" style="stroke: currentColor stroke-miterlimit:10;"/><path d="M1601.34,295.89c0-11.82,8.49-20.25,20.46-20.25s20.46,8.43,20.46,20.25-8.49,20.3-20.46,20.3-20.46-8.38-20.46-20.3Zm35.99,0c0-9.29-6.45-15.95-15.52-15.95s-15.58,6.66-15.58,15.95,6.5,16.01,15.58,16.01,15.52-6.71,15.52-16.01Z" style="stroke: currentColor stroke-miterlimit:10;"/><path d="M1666.38,276.98h7.04l17.94,31.42h.48v-31.42h4.89v37.87h-6.98l-17.94-31.42h-.54v31.42h-4.89v-37.87Z" style="stroke: currentColor stroke-miterlimit:10;"/><path d="M1752.9,276.98h16.44c6.98,0,11.98,4.24,11.98,10.15,0,3.6-2.31,6.82-5.53,7.84v.54c3.87,1.07,6.61,4.62,6.61,8.7,0,6.12-5.48,10.63-13.05,10.63h-16.44v-37.87Zm15.84,16.27c4.51,0,7.73-2.47,7.73-5.96s-3.22-6.02-7.73-6.02h-10.96v11.98h10.96Zm-.11,17.29c5.21,0,8.92-2.79,8.92-6.61s-3.71-6.39-8.92-6.39h-10.85v13h10.85Z" style="stroke: currentColor stroke-miterlimit:10;"/><path d="M1815.69,300.99l-13.7-24.01h5.16l10.74,19.34h.54l10.53-19.34h5.26l-13.59,24.01v13.86h-4.94v-13.86Z" style="stroke: currentColor stroke-miterlimit:10;"/><path d="M1886.85,276.98h4.94v15.95h20.41v-15.95h4.89v37.87h-4.89v-17.62h-20.41v17.62h-4.94v-37.87Z" style="stroke: currentColor stroke-miterlimit:10;"/><path d="M1943.57,276.98h4.89v37.87h-4.89v-37.87Z" style="stroke: currentColor stroke-miterlimit:10;"/><path d="M1974.93,276.98h4.89v33.57h19.07v4.3h-23.96v-37.87Z" style="stroke: currentColor stroke-miterlimit:10;"/><path d="M2024.77,281.28h-12.51v-4.3h29.97v4.3h-12.57v33.57h-4.89v-33.57Z" style="stroke: currentColor stroke-miterlimit:10;"/><path d="M2061.67,295.89c0-11.82,8.49-20.25,20.46-20.25s20.46,8.43,20.46,20.25-8.49,20.3-20.46,20.3-20.46-8.38-20.46-20.3Zm35.99,0c0-9.29-6.45-15.95-15.52-15.95s-15.58,6.66-15.58,15.95,6.5,16.01,15.58,16.01,15.52-6.71,15.52-16.01Z" style="stroke: currentColor stroke-miterlimit:10;"/><path d="M2126.71,276.98h7.04l17.94,31.42h.48v-31.42h4.89v37.87h-6.98l-17.94-31.42h-.54v31.42h-4.89v-37.87Z" style="stroke: currentColor stroke-miterlimit:10;"/></g><g><path d="M2171.47,277.59h-4.69v-1.61h11.24v1.61h-4.71v12.59h-1.83v-12.59Z" style="stroke: currentColor stroke-miterlimit:10;"/><path d="M2183.37,275.98h2.9l4.69,11.64h.18l4.71-11.64h2.88v14.2h-1.83v-11.88h-.18l-4.79,11.88h-1.75l-4.77-11.86h-.18v11.86h-1.85v-14.2Z" style="stroke: currentColor stroke-miterlimit:10;"/></g></g></g></g></g></g></svg>